<?xml version="1.0" standalone="no"?>
<!DOCTYPE svg PUBLIC "-//W3C//DTD SVG 20010904//EN"
 "http://www.w3.org/TR/2001/REC-SVG-20010904/DTD/svg10.dtd">
<svg version="1.0" xmlns="http://www.w3.org/2000/svg"
 width="32.000000pt" height="32.000000pt" viewBox="0 0 32.000000 32.000000"
 preserveAspectRatio="xMidYMid meet">

<g transform="translate(0.000000,32.000000) scale(0.100000,-0.100000)"
fill="#000000" stroke="none">
<path d="M56 234 c-11 -10 -16 -34 -16 -75 0 -79 18 -76 22 4 3 59 4 62 28 62
24 0 25 -3 28 -67 l3 -68 -51 0 c-27 0 -50 -4 -50 -10 0 -6 30 -10 70 -10 63
0 70 -2 70 -20 0 -11 5 -20 10 -20 6 0 10 9 10 20 0 17 7 20 50 20 l50 0 0 74
c0 100 -6 106 -120 106 -67 0 -92 -4 -104 -16z m202 -76 l3 -68 -60 0 -59 0
-4 70 -3 71 60 -3 60 -3 3 -67z"/>
<path d="M170 200 c0 -5 11 -10 25 -10 14 0 25 -4 25 -10 0 -5 5 -10 10 -10 6
0 10 9 10 20 0 16 -7 20 -35 20 -19 0 -35 -4 -35 -10z"/>
</g>
</svg>
